<?xml version="1.0" standalone="no"?><!DOCTYPE svg PUBLIC "-//W3C//DTD SVG 1.1//EN" "http://www.w3.org/Graphics/SVG/1.1/DTD/svg11.dtd"><svg t="1537843902886" class="icon" style="" viewBox="0 0 1024 1024" version="1.1" xmlns="http://www.w3.org/2000/svg" p-id="14170" xmlns:xlink="http://www.w3.org/1999/xlink" width="200" height="200"><defs><style type="text/css"></style></defs><path d="M719.2 912h-4c-96.4-4.8-226.8-95.2-348.4-242L321.6 616C199.6 469.6 136 326.4 150.8 233.2 161.2 167.6 259.6 112 315.6 112c27.6 0 37.6 13.6 41.2 22C388.4 190 428 288 428 322.8v2.4l-0.8 2.4c-7.2 18.4-22.8 27.2-36.4 35.2-18.4 10.4-28.4 16.8-30 36.4-0.4 6 4.8 32.8 85.2 131.2l34.4 41.2c80.4 94.8 106 104.8 112 105.6 19.6 2.8 28.4-5.6 42.4-21.2 10.8-11.6 22.8-24.8 42.8-27.6l2.4-0.4 2.4 0.4c35.2 7.2 124.8 64.8 176 107.6 7.2 4.8 20.4 19.2 10 51.2-16.4 50.4-85.6 124.8-149.2 124.8z m0 0" fill="#1296db" p-id="14171"></path></svg>