<?xml version="1.0" standalone="no"?><!DOCTYPE svg PUBLIC "-//W3C//DTD SVG 1.1//EN" "http://www.w3.org/Graphics/SVG/1.1/DTD/svg11.dtd"><svg t="1537843592054" class="icon" style="" viewBox="0 0 1024 1024" version="1.1" xmlns="http://www.w3.org/2000/svg" p-id="6821" xmlns:xlink="http://www.w3.org/1999/xlink" width="200" height="200"><defs><style type="text/css"></style></defs><path d="M322.3 364.8h144.3c10.4 0 18.7-8.4 18.7-18.7 0-10.4-8.4-18.7-18.7-18.7H322.3c-10.4 0-18.7 8.4-18.7 18.7 0 10.3 8.4 18.7 18.7 18.7zM322.3 470.4h144.3c10.4 0 18.7-8.4 18.7-18.7 0-10.4-8.4-18.7-18.7-18.7H322.3c-10.4 0-18.7 8.4-18.7 18.7 0 10.3 8.4 18.7 18.7 18.7zM709.7 466.9h-84.8c-10.4 0-18.7 8.4-18.7 18.7 0 10.4 8.4 18.7 18.7 18.7h84.8c10.4 0 18.7-8.4 18.7-18.7 0-10.3-8.4-18.7-18.7-18.7zM709.7 564.7h-84.8c-10.4 0-18.7 8.4-18.7 18.7 0 10.4 8.4 18.7 18.7 18.7h84.8c10.4 0 18.7-8.4 18.7-18.7 0-10.3-8.4-18.7-18.7-18.7zM709.7 662.5h-84.8c-10.4 0-18.7 8.4-18.7 18.7 0 10.4 8.4 18.7 18.7 18.7h84.8c10.4 0 18.7-8.4 18.7-18.7 0-10.4-8.4-18.7-18.7-18.7z" p-id="6822" fill="#1296db"></path><path d="M732.1 340.4h-157v-65.7c0-42.3-34.4-76.7-76.7-76.7h-208c-42.3 0-76.7 34.4-76.7 76.7v533c0 10.4 8.4 18.7 18.7 18.7h557.5c10.4 0 18.7-8.4 18.7-18.7V417.1c0.3-42.3-34.2-76.7-76.5-76.7z m-480.8-65.7c0-21.6 17.6-39.2 39.2-39.2h208c21.6 0 39.2 17.6 39.2 39.2V789H485V660.6c0-29.7-25-53.9-55.8-53.9h-69.3c-30.8 0-55.8 24.2-55.8 53.9V789h-52.7V274.7zM341.5 789V660.6c0-8.9 8.4-16.4 18.3-16.4h69.3c9.9 0 18.3 7.5 18.3 16.4V789H341.5z m429.9 0H575.1V377.9h157c21.6 0 39.2 17.6 39.2 39.2V789z" p-id="6823" fill="#1296db"></path></svg>