<?xml version="1.0" standalone="no"?><!DOCTYPE svg PUBLIC "-//W3C//DTD SVG 1.1//EN" "http://www.w3.org/Graphics/SVG/1.1/DTD/svg11.dtd"><svg t="1537844121637" class="icon" style="" viewBox="0 0 1024 1024" version="1.1" xmlns="http://www.w3.org/2000/svg" p-id="17330" xmlns:xlink="http://www.w3.org/1999/xlink" width="200" height="200"><defs><style type="text/css"></style></defs><path d="M670.510118 896.747289a21.351126 21.351126 0 0 0-20.49708-15.799833h-74.728941v-123.409508a21.351126 21.351126 0 0 0-42.702252 0v125.117598h-40.567139v-125.117598a21.351126 21.351126 0 1 0-42.702252 0v125.117598H374.583513a21.351126 21.351126 0 0 0-20.497081 15.799833L324.621878 996.670559a21.351126 21.351126 0 0 0 20.497081 26.902418h330.942452a21.351126 21.351126 0 0 0 18.361968-32.453711z m-295.07256 85.404504l15.799833-55.93995h242.548791L649.158992 982.151793zM982.236557 216.073394A146.895746 146.895746 0 0 0 885.729468 128.106756 132.804003 132.804003 0 0 0 837.048901 123.409508V53.377815A53.804837 53.804837 0 0 0 785.379176 0H239.217374a53.804837 53.804837 0 0 0-53.804837 53.377815v70.031693A130.668891 130.668891 0 0 0 138.867083 128.106756 146.895746 146.895746 0 0 0 41.932971 216.073394 230.59216 230.59216 0 0 0 34.246565 364.250209a197.711426 197.711426 0 0 0 174.652211 158.425354 134.085071 134.085071 0 0 0 16.226855-2.135113 324.537114 324.537114 0 0 0 286.53211 183.192661 324.537114 324.537114 0 0 0 286.532111-183.192661 133.658048 133.658048 0 0 0 16.226855 2.135113 197.711426 197.711426 0 0 0 174.65221-158.425354 230.59216 230.59216 0 0 0-6.83236-148.176815zM75.66775 353.147623a187.462886 187.462886 0 0 1 5.551293-120.42035 105.474562 105.474562 0 0 1 68.323603-64.480401 89.247706 89.247706 0 0 1 35.442869 0v183.619683a373.217681 373.217681 0 0 0 22.632193 128.106756 155.863219 155.863219 0 0 1-131.949958-126.825688z m436.844036 307.883236c-156.717264 0-283.969975-138.782319-283.969974-309.164304v-298.915763A10.675563 10.675563 0 0 1 239.217374 42.702252h546.588824a10.675563 10.675563 0 0 1 10.675563 10.675563v298.915763c-2.135113 169.954962-127.679733 308.737281-284.396997 308.737281z m436.417015-307.883236a155.863219 155.863219 0 0 1-132.376981 128.106756 373.217681 373.217681 0 0 0 22.632193-128.106756V166.965805a90.955796 90.955796 0 0 1 35.869892 0 105.474562 105.474562 0 0 1 68.323603 64.4804 187.889908 187.889908 0 0 1 5.551293 121.701418z" fill="#1296db" p-id="17331"></path><path d="M601.33247 245.110926h-30.745621l-8.54045-24.340284c-21.351126-62.345288-27.756464-81.134279-50.388658-81.134278s-29.037531 19.216013-48.253544 76.010008l-10.675563 29.037531h-23.486239c-67.469558 0-87.539616 0-94.798999 23.059216s9.394495 33.734779 58.502085 69.177648l24.767306 17.934946-7.686405 24.340284c-18.361968 58.075063-23.486239 75.582986-12.810676 90.101751a30.745621 30.745621 0 0 0 20.924104 10.248541c14.518766 0 29.464554-10.675563 68.750625-38.432027l25.194329-17.934946 20.924103 14.518766c42.702252 29.891576 58.929108 42.702252 73.874896 42.702252a30.745621 30.745621 0 0 0 20.924104-10.675563c10.675563-14.518766 5.551293-30.745621-11.529608-85.404504l-8.967473-29.037531 19.216013-13.664721c53.804837-39.713094 70.458716-52.096747 63.199333-73.447873s-27.329441-22.632193-88.393662-23.059216z m0 61.491242l-32.026689 23.486239a21.351126 21.351126 0 0 0-7.686405 23.486239l13.664721 42.702251 7.259383 23.059216-25.194329-17.507923-33.307757-23.059216a21.351126 21.351126 0 0 0-24.340283 0l-37.577982 26.475396-20.497081 14.518766 11.102586-28.183486 11.95663-38.432027a21.351126 21.351126 0 0 0-7.686405-23.486239l-37.150959-27.329441-19.643036-14.518765h70.885738a21.351126 21.351126 0 0 0 19.643036-14.091743l14.945788-42.702252 8.113428-23.486239 9.821518 28.183486 13.237698 38.432027a21.351126 21.351126 0 0 0 19.643036 14.091743h70.885738z" fill="#1296db" p-id="17332"></path></svg>