<?xml version="1.0" standalone="no"?><!DOCTYPE svg PUBLIC "-//W3C//DTD SVG 1.1//EN" "http://www.w3.org/Graphics/SVG/1.1/DTD/svg11.dtd"><svg t="1537843844879" class="icon" style="" viewBox="0 0 1024 1024" version="1.1" xmlns="http://www.w3.org/2000/svg" p-id="12806" xmlns:xlink="http://www.w3.org/1999/xlink" width="200" height="200"><defs><style type="text/css"></style></defs><path d="M681.898667 584.277333c16.128 0 29.269333-13.141333 29.269333-29.269333 0-9.301333-4.352-17.578667-11.093333-22.954667l0.170666-0.170666c-22.528-17.408-47.530667-31.658667-74.581333-42.069334 34.389333-29.525333 56.32-73.216 56.32-122.026666 0-88.832-72.021333-160.853333-160.853333-160.853334S360.277333 278.954667 360.277333 367.786667c0 48.896 21.930667 92.586667 56.32 122.026666C306.858667 531.882667 228.778667 638.037333 228.693333 762.624v0.085333c0 16.128 13.141333 29.184 29.269334 29.184s29.184-13.056 29.269333-29.184c0-129.024 104.96-233.984 233.984-233.984 52.906667 0 101.632 17.834667 140.8 47.616 5.12 4.949333 12.117333 7.936 19.882667 7.936zM521.045333 470.186667c-56.490667 0-102.4-45.909333-102.4-102.314667 0-56.405333 45.909333-102.4 102.4-102.4 56.405333 0 102.314667 45.909333 102.314667 102.4 0.085333 56.32-45.909333 102.314667-102.314667 102.314667z m239.36 138.837333c-3.925333-0.938667-8.021333-1.536-12.288-1.536-25.173333 0-45.824 20.48-45.824 45.824 0 20.650667 13.824 38.229333 32.597334 43.861333-14.08 23.04-33.365333 42.752-56.405334 56.917334-6.997333-16.213333-23.210667-27.477333-42.154666-27.477334-25.344 0-45.824 20.48-45.824 45.824 0 2.901333 0.170667 5.888 1.024 8.618667 3.925333 21.077333 22.186667 37.034667 44.288 37.290667 12.544 0 19.541333-3.242667 25.685333-5.461334 66.304-23.552 115.456-78.421333 130.56-145.834666 0.682667-2.901333 1.962667-9.045333 1.962667-13.653334-0.085333-21.162667-14.336-38.912-33.621334-44.373333z m0 0" p-id="12807" fill="#1296db"></path></svg>