<?xml version="1.0" standalone="no"?><!DOCTYPE svg PUBLIC "-//W3C//DTD SVG 1.1//EN" "http://www.w3.org/Graphics/SVG/1.1/DTD/svg11.dtd"><svg t="1537256067298" class="icon" style="" viewBox="0 0 1024 1024" version="1.1" xmlns="http://www.w3.org/2000/svg" p-id="2532" xmlns:xlink="http://www.w3.org/1999/xlink" width="200" height="200"><defs><style type="text/css"></style></defs><path d="M781.160229 408.621515v-76.776618c0-148.029428-121.157407-268.029476-270.610254-268.029476-149.455917 0-270.613324 120.000048-270.613324 268.029476v76.776618c-45.671179 8.096399-90.150206 56.82931-90.203418 101.904924v357.367177c0.058328 49.318242 40.411385 89.285512 90.203418 89.340771h541.223578c49.792033-0.055259 90.14509-40.022529 90.200349-89.340771V510.526439c-0.051165-45.076638-44.531216-93.810572-90.200349-101.904924z m-481.084896-76.776618c0-115.134227 94.231151-208.467939 210.474642-208.467939 116.240421 0 210.474642 93.333712 210.474642 208.467939v75.598792H300.075333v-75.598792z m502.557954 522.320043c-0.017396 16.442484-17.762549 34.346249-34.359553 34.366716H252.826216c-16.601096-0.020466-34.349319-17.924231-34.363646-34.366716V510.536672c0.013303-16.439414 1.907443-35.930327 34.363646-34.366715h515.447518c16.597003 0.020466 34.342156 17.927301 34.359553 34.366715v343.628268zM510.549975 570.087976c-66.427922 0-120.274294 53.331649-120.274294 119.120005 0 65.791425 53.847395 119.123075 120.274294 119.123075 66.393129-0.075725 120.19243-53.362348 120.268154-119.123075-0.001023-65.788355-53.844326-119.120005-120.268154-119.120005z m0 178.682566c-33.215496 0-60.138682-26.666336-60.138682-59.561538 0-32.892131 26.923186-59.558467 60.138682-59.558467 33.19503 0.037862 60.09468 26.679639 60.135612 59.558467 0 32.895201-26.927279 59.561537-60.135612 59.561538z" fill="" p-id="2533"></path></svg>