<?xml version="1.0" standalone="no"?><!DOCTYPE svg PUBLIC "-//W3C//DTD SVG 1.1//EN" "http://www.w3.org/Graphics/SVG/1.1/DTD/svg11.dtd"><svg t="1537263362612" class="icon" style="" viewBox="0 0 1024 1024" version="1.1" xmlns="http://www.w3.org/2000/svg" p-id="1878" xmlns:xlink="http://www.w3.org/1999/xlink" width="200" height="200"><defs><style type="text/css"></style></defs><path d="M512 948.528098c-0.160659-0.068562-367.602286-189.200106-367.602286-407.41913L144.397714 75.471902c0 0 87.788415 51.716872 196.71322 51.716872 54.451146 0 118.299313-12.93459 177.460738-51.716872 59.183937 38.804794 117.541043 51.716872 171.992189 51.716872 108.902292 0 189.039447-51.716872 189.039447-51.716872l0 465.638089C879.602286 759.327992 512.160659 948.459536 512 948.528098zM827.081095 156.964938c-35.014468 15.140839-73.566506 22.630417-137.597845 22.630417-62.584384 0-117.770264-15.370059-170.912601-45.697785-53.16485 30.327726-113.819279 45.697785-176.380126 45.697785-64.054875 0-92.773963-7.513114-145.271618-22.630417l0 384.145054c0 153.014976 208.774931 291.876604 314.874387 350.256222 68.282153-38.414915 315.287803-180.745551 315.287803-350.256222L827.081095 156.964938zM510.736217 602.338495 374.194424 466.141556c-6.846942-6.823406-6.846942-17.875113 0-24.674982 6.823406-6.823406 17.897625-6.823406 24.744567 0l111.429859 111.153566 187.477882-192.485943c6.731308-6.915503 17.829064-7.076162 24.744567-0.344854 6.915503 6.731308 7.099698 17.783015 0.367367 24.698518L510.736217 602.338495z" p-id="1879"></path></svg>